<?xml version="1.0" standalone="no"?>
<!DOCTYPE svg PUBLIC "-//W3C//DTD SVG 20010904//EN"
 "http://www.w3.org/TR/2001/REC-SVG-20010904/DTD/svg10.dtd">
<svg version="1.0" xmlns="http://www.w3.org/2000/svg"
 width="626.000000pt" height="626.000000pt" viewBox="0 0 626.000000 626.000000"
 preserveAspectRatio="xMidYMid meet">
<metadata>
Created by potrace 1.14, written by Peter Selinger 2001-2017
</metadata>
<g transform="translate(0.000000,626.000000) scale(0.100000,-0.100000)"
fill="#000000" stroke="none">
<path d="M2049 5250 c-9 -8 -85 -134 -169 -280 -84 -146 -161 -280 -171 -297
-19 -34 -36 -62 -96 -168 -19 -33 -43 -75 -54 -94 -12 -19 -79 -136 -151 -260
-72 -124 -191 -331 -265 -459 l-134 -233 32 -57 c46 -82 44 -79 289 -502 123
-212 231 -398 240 -415 110 -194 448 -777 463 -801 l20 -30 1038 0 c678 1
1041 4 1048 11 5 6 68 111 139 235 71 124 150 260 176 303 25 43 46 80 46 82
0 1 30 54 66 116 114 196 214 370 285 494 38 66 73 127 78 135 13 21 190 328
214 370 10 19 23 40 27 45 5 6 -86 175 -222 410 -127 220 -242 420 -256 444
-14 25 -38 68 -55 95 -16 28 -38 65 -47 81 -9 17 -68 118 -130 225 -62 107
-118 204 -124 215 -83 151 -201 345 -210 346 -6 0 -472 1 -1035 2 -899 2
-1027 0 -1042 -13z"/>
</g>
</svg>
